<?xml version='1.0' encoding='utf-8'?>
<svg xmlns="http://www.w3.org/2000/svg" version="1.1" width="600px" height="976px" viewBox="0 0 600 976"> <g id="layer1"> <g style="fill:rgb(255,205,166); fill-opacity:1.0; stroke-linejoin: miter"> <path d="M344.986,549.1184Q344.23636,550.1774,344.15808,551.0365Q344.12518,551.2996,344.1204,551.6882Q344.14752,553.47876,344.12775,553.67773L344.00616,555.78107Q343.99615,556.32324,344.09125,556.58887Q344.2273,556.9563,344.61972,556.8386Q345.03354,556.6862,345.34,556.18066Q345.5321,555.8536,345.6028,555.4006Q345.65546,555.17377,345.7005,554.05756Q345.71368,553.89355,345.74133,553.76746Q345.80344,553.4972,345.96518,553.39966Q346.1701,553.24335,346.81577,553.3939Q346.9837,554.23035,347.00943,554.68085Q347.06354,555.44666,346.79187,555.90485Q346.6847,556.08777,346.4755,556.2912Q345.53198,557.0841,345.48898,557.17584Q345.2224,557.4787,345.12955,557.80176Q344.9781,558.32874,345.1327,558.8099Q345.2888,559.2398,345.64352,559.29736Q346.58148,559.39044,348.7243,556.64856Q349.39178,555.7618,349.55774,555.24585Q349.73154,554.78534,349.65668,553.93823Q349.53162,552.11145,349.33054,549.7617L344.99374,549.11957"/> </g> <g style="fill:rgb(0,0,0); fill-opacity:1.0; stroke-linejoin: miter"> <path d="M323.39822,501.39865Q323.3045,501.40143,323.24072,501.46368Q322.66614,502.0538,322.40244,502.37253Q321.93918,502.9225,321.71762,503.40482Q321.43423,504.00513,321.301,504.85355L321.7472,504.93365Q321.9044,503.95303,322.26257,503.34476Q322.43707,503.04398,322.7215,502.70135Q322.97803,502.3872,323.5707,501.77744Q323.5941,501.75037,323.60623,501.72363Q323.65588,501.6134,323.59216,501.50385Q323.52435,501.40344,323.40274,501.39865"/> </g> <g style="fill:rgb(0,0,0); fill-opacity:1.0; stroke-linejoin: miter"> <path d="M331.0379,503.63306L330.76456,503.99673Q332.53967,505.50632,333.35352,506.42642Q333.7306,506.85217,334.04657,507.3161Q334.34222,507.74405,334.76727,508.52213Q334.784,508.55164,334.82306,508.58322Q334.96738,508.67453,335.0956,508.58496Q335.22443,508.47546,335.17377,508.3211Q334.6224,507.28754,334.13007,506.65335Q333.35767,505.59888,331.04428,503.63788"/> </g> <g style="fill:rgb(108,59,20); fill-opacity:1.0; stroke-linejoin: miter"> <path d="M328.2609,485.1988Q326.09464,485.2649,324.11032,486.72565Q322.29706,488.1144,321.93857,489.9938Q321.56244,491.5664,322.17587,495.06497L325.71204,497.60855L333.96246,496.12143L333.96872,496.09885Q334.61725,493.03043,334.56796,491.59827Q334.55545,489.9838,333.86148,488.66333Q333.04572,487.1148,331.47623,486.12003Q329.95242,485.17938,328.27786,485.19858"/> </g> <g style="fill:rgb(0,0,0); fill-opacity:1.0; stroke-linejoin: miter"> <path d="M339.9281,560.1393L315.11664,562.813Q315.1506,568.6698,314.89145,574.4781L313.46973,601.2745Q313.27777,606.3756,313.56546,608.49884Q313.6741,609.3429,313.90674,609.8708Q314.99258,611.17004,315.73398,613.0437Q315.27716,616.56726,316.21326,617.39136Q317.85593,619.02484,323.01596,618.853Q324.89233,618.66956,324.9015,617.53345Q325.09863,616.251,322.7112,612.5088L324.15955,609.97314L323.44818,597.317Q323.36517,594.00836,323.71655,590.5495Q324.17993,585.5831,326.6584,573.2024L330.05133,614.9829Q329.9792,614.19916,330.0813,614.43634L337.14474,614.67413L337.16318,613.9198Q342.62967,615.49365,346.2637,615.3433Q348.94043,615.2358,349.3659,614.1939Q349.5303,613.5566,348.5218,613.1168L343.28778,611.7981Q342.13068,611.39874,341.48114,610.72906Q341.06955,610.30695,340.70956,609.74384L337.10733,602.038Q336.7456,594.7395,337.3036,586.9175Q337.89227,578.2312,339.926,560.16254"/> </g> <g style="fill:rgb(255,255,255); fill-opacity:1.0; stroke-linejoin: miter"> <path d="M320.70776,503.85846L318.71478,506.50143L312.19806,509.26657Q310.65225,510.08484,309.91272,511.2616Q309.51736,511.83194,309.0653,513.02875Q308.66083,514.07996,307.98444,516.7813L304.1351,527.1428Q303.49115,528.9707,303.31903,530.43976Q302.95,533.3635,305.0036,535.1151Q306.66772,536.7817,313.23264,539.2429Q312.301,549.3161,313.57385,573.15186L331.9564,571.8049Q336.33173,569.8943,338.3036,569.7908Q340.02936,569.5859,343.3945,570.06714L341.60925,539.3193L343.91998,546.8738L350.0335,547.1263L350.0646,547.0537Q346.74615,520.6014,341.7991,513.2336Q340.43604,511.2641,338.78583,510.34103Q338.68253,510.03793,332.96432,508.11136L332.1492,505.28683L320.7571,503.86462"/> </g> <g style="fill:rgb(164,246,255); fill-opacity:1.0; stroke-linejoin: miter"> <path d="M324.72034,502.3862L322.73224,502.45703L321.88153,504.9836Q323.8399,506.22006,326.10593,510.304Q328.54208,514.69543,329.57944,518.7334Q330.4644,522.0395,330.93817,527.10767Q331.17493,529.5957,331.37473,532.9314Q331.58273,536.3411,331.86694,542.9878L331.8924,542.99243L336.22946,542.374Q335.68466,530.1505,335.00058,524.4847Q334.6613,521.55237,334.1245,518.4728Q333.8246,516.6373,332.54666,510.333L332.2107,508.41113Q331.85822,506.24237,331.77017,503.85706Q327.499,502.2677,324.7448,502.3862"/> </g> <g style="fill:rgb(0,0,0); fill-opacity:1.0; stroke-linejoin: miter"> <path d="M336.1574,540.7983L331.7852,541.10944L332.15698,572.1546L337.84036,570.24304L336.1587,540.8209"/> </g> <g style="fill:rgb(0,0,0); fill-opacity:1.0; stroke-linejoin: miter"> <path d="M329.91705,507.5476L328.609,507.61575L327.64423,509.4762L329.1572,510.62045Q328.88403,512.9872,329.09125,514.9724Q329.16977,515.82556,329.3629,516.98315L330.4915,523.05505Q330.78522,524.7407,330.94003,526.05035Q331.32468,529.06274,331.4321,534.47906L333.9116,536.1649L335.5174,533.82214Q333.62964,519.95197,332.77332,516.1069Q331.93604,512.0027,330.6032,510.18054L331.19156,509.20837L329.91766,507.5484"/> </g> <g style="fill:rgb(164,246,255); fill-opacity:1.0; stroke-linejoin: miter"> <path d="M346.98727,545.303Q346.52582,545.3018,345.95776,545.5202Q345.45084,545.70844,344.52808,546.24585L344.72778,549.33057L349.46475,549.9973L349.47272,549.9969L349.40408,546.3493Q348.50336,545.74365,348.02222,545.54376Q347.46805,545.30255,346.98996,545.303"/> </g> <g style="fill:rgb(255,205,166); fill-opacity:1.0; stroke-linejoin: miter"> <path d="M327.40668,489.20123Q325.76413,489.17264,325.34283,489.8775Q325.2082,490.06845,325.12292,490.38855Q325.08218,490.48517,324.98105,491.2937Q324.9492,491.47028,324.89008,491.62695Q324.87518,491.74768,324.3545,492.55875Q324.26105,492.739,324.16696,493.02478Q324.01306,493.47235,323.78253,494.64917Q322.38193,493.36475,321.98032,493.5616Q321.45477,493.74026,321.51147,495.2792Q321.56152,497.0927,323.31165,498.62146L323.05734,502.96024L328.66458,507.5091L329.77798,507.3691L331.74518,504.04852L331.65018,503.0265Q332.97632,501.25287,333.40646,500.16696Q334.17236,498.5584,334.1214,494.57822Q333.71558,492.6526,333.6189,490.64667Q333.53812,490.14996,333.27075,489.9412Q333.0175,489.7317,332.27777,489.6499Q327.96207,489.13873,327.41412,489.20123"/> </g> <g style="fill:rgb(255,21,0); fill-opacity:0.0627451; stroke-linejoin: miter"> <path d="M324.59192,500.80035L328.5734,507.54276L329.76382,507.43918L331.77325,504.0216L331.77658,504.0216Q331.77322,503.93945,331.77017,503.85706Q331.74973,503.84946,331.72928,503.84186L331.72598,503.84186L331.65018,503.0265Q331.7159,502.93857,331.77945,502.85233L331.77612,502.85233Q330.44193,503.7713,329.30435,503.7713Q328.94052,503.7713,328.59683,503.6773Q327.29712,503.40207,324.6003,500.80515L324.59192,500.80035 Z"/> </g> <g style="fill:rgb(0,0,0); fill-opacity:1.0; stroke-linejoin: miter"> <path d="M321.48453,503.95584Q321.28485,504.78595,321.2034,505.38748Q321.00082,506.80573,321.13757,508.50436Q321.29068,510.52933,322.0814,514.5059Q322.3248,515.7441,322.82407,518.12964Q322.88202,518.3082,323.07727,518.32263Q323.344,518.2912,323.33963,518.0263Q322.48157,513.9331,322.1566,512.04926Q321.77115,509.85513,321.6624,508.4532Q321.55453,507.09265,321.66776,505.9439Q321.73572,505.16202,322.0082,504.0212L322.01144,504.0212L321.48773,503.95584 Z"/> </g> <g style="fill:rgb(0,0,0); fill-opacity:1.0; stroke-linejoin: miter"> <path d="M335.2969,508.0849Q334.7003,508.0915,334.16885,508.6491Q333.59686,509.2646,333.3369,510.13977Q333.1568,510.78198,333.27985,511.4934Q333.2815,511.57867,333.52274,512.50836L333.62653,513.0853Q333.68335,513.2479,333.86868,513.2602Q334.09592,513.23584,334.11594,513.0089Q334.08755,512.76807,334.03143,512.491Q334.00714,512.3453,333.8109,511.59503Q333.76544,511.39197,333.74585,511.20587Q333.69366,510.71307,333.82547,510.25385Q334.01312,509.62238,334.41296,509.12988Q334.80582,508.65814,335.18964,508.59497Q335.80704,508.52502,336.55286,509.3413Q337.3486,510.15662,338.30212,512.5992Q338.38882,512.721,338.54642,512.70636Q338.69812,512.67957,338.7505,512.5271Q338.773,512.4466,338.74326,512.3679Q338.29562,511.2536,338.02432,510.70685Q337.61633,509.86945,337.1762,509.3059Q336.2184,508.09576,335.2996,508.0849"/> </g> <g style="fill:rgb(12,0,0); fill-opacity:1.0; stroke-linejoin: miter"> <path d="M323.26047,517.27606Q322.5078,517.2879,321.96768,517.81903Q321.448,518.357,321.44022,519.11163Q321.45398,519.8658,321.9806,520.4009Q322.51456,520.92017,323.2709,520.931Q324.02365,520.9208,324.565,520.3906Q325.08585,519.8536,325.0951,519.09894Q325.08276,518.3447,324.5573,517.8088Q324.02463,517.28845,323.26828,517.27606"/> </g> <g style="fill:rgb(255,255,255); fill-opacity:1.0; stroke-linejoin: miter"> <path d="M323.26416,517.80695Q322.73087,517.81635,322.35077,518.18665Q321.97757,518.57043,321.97104,519.10504Q321.981,519.6418,322.34906,520.01886Q322.73636,520.39465,323.26767,520.40027Q323.801,520.3924,324.18225,520.02295Q324.55652,519.63995,324.56433,519.1053Q324.55753,518.5705,324.18488,518.1869Q323.7969,517.81165,323.26553,517.80695"/> </g> <g style="fill:rgb(115,96,96); fill-opacity:1.0; stroke-linejoin: miter"> <path d="M338.55746,512.3736Q338.41962,512.3921,338.428,512.52905Q338.7885,513.7528,338.91104,514.1901Q339.08224,514.7948,339.20645,515.28125Q339.45938,516.2697,339.5356,516.87225Q339.60907,517.43866,339.54355,517.87177Q339.51147,518.078,339.44952,518.2592Q339.4276,518.3413,339.2472,518.7519Q339.2463,518.8823,339.37854,518.89825Q339.46432,518.8932,339.49893,518.8205Q339.71616,518.37885,339.7814,518.042Q339.88687,517.5327,339.79788,516.84076Q339.69952,516.0363,339.24802,514.41364Q339.07544,513.78674,338.68283,512.4624Q338.64926,512.37897,338.55927,512.3736"/> </g> <g style="fill:rgb(115,96,96); fill-opacity:1.0; stroke-linejoin: miter"> <path d="M333.74557,512.79596Q333.664,512.83496,333.67123,512.93835Q333.9996,514.6347,334.18082,515.41205Q334.53165,516.944,334.86243,517.6539Q335.15567,518.2943,335.57333,518.6257Q335.79062,518.799,336.06525,518.9125Q336.2344,518.9845,336.54602,519.0762Q336.59668,519.0878,336.63467,519.0695Q336.77686,518.97974,336.6585,518.8418Q335.91205,518.63354,335.60025,518.29596Q335.31815,518.01544,335.1017,517.54205Q334.62592,516.5965,333.92776,512.87744Q333.87488,512.75586,333.74957,512.7942"/> </g> <g style="fill:rgb(0,0,0); fill-opacity:1.0; stroke-linejoin: miter"> <path d="M339.2643,518.4553Q339.1317,518.45605,339.03415,518.54877Q338.93942,518.64575,338.93704,518.77826Q338.93854,518.9132,339.03043,519.00885Q339.12546,519.10284,339.25998,519.106Q339.39523,519.10425,339.49036,519.0128Q339.5852,518.916,339.58774,518.78345Q339.5864,518.6485,339.4947,518.5528Q339.39984,518.4586,339.2653,518.4553"/> </g> <g style="fill:rgb(0,0,0); fill-opacity:1.0; stroke-linejoin: miter"> <path d="M336.77817,518.5687Q336.64487,518.5699,336.5483,518.66174Q336.45355,518.7583,336.4508,518.891Q336.45212,519.0263,336.54407,519.1221Q336.63818,519.21576,336.77338,519.21936Q336.90866,519.218,337.00436,519.12604Q337.09903,519.02936,337.10156,518.89667Q337.09964,518.7609,337.0089,518.66656Q336.915,518.5726,336.77985,518.5687"/> </g> <g style="fill:rgb(0,0,0); fill-opacity:1.0; stroke-linejoin: miter"> <path d="M307.28952,519.96106L311.2655,529.7527L315.91953,531.2511L321.481,532.31946L317.2523,522.4021L307.30377,519.96454"/> </g> <g style="fill:rgb(0,0,0); fill-opacity:1.0; stroke-linejoin: miter"> <path d="M323.05295,536.1578L313.02704,535.3709L315.22568,539.667L325.4036,542.43774L323.05414,536.16095"/> </g> <g style="fill:rgb(164,246,255); fill-opacity:1.0; stroke-linejoin: miter"> <path d="M314.5081,530.8511Q312.70605,532.9094,312.4232,534.61145Q312.09158,536.03156,313.13632,538.5702L316.27844,537.5138Q316.54865,537.3831,316.67044,537.3135Q317.46588,536.89636,317.60175,536.05853Q317.72363,535.31616,317.4866,534.1857Q317.234,533.04224,316.78967,532.2812Q316.4385,531.68713,315.91718,531.36206Q315.4682,531.0644,314.51645,530.8531"/> </g> <g style="fill:rgb(255,205,166); fill-opacity:1.0; stroke-linejoin: miter"> <path d="M318.48862,528.70605Q317.29852,528.6122,315.385,531.97107L315.09406,532.614L314.9085,534.00964Q314.77237,535.08484,314.90298,536.3949Q318.77054,537.1631,320.39264,537.1178Q322.3822,537.1205,323.35648,536.1199Q324.40982,535.0084,324.09024,533.39264Q323.67062,531.7311,322.0666,530.2947Q321.27124,529.58936,320.59305,529.8738Q319.26212,528.65985,318.50174,528.70593"/> </g> <g style="fill:rgb(0,0,0); fill-opacity:1.0; stroke-linejoin: miter"> <path d="M371.39795,487.38675L371.29144,560.94824L425.65472,561.0619L446.66565,561.0232L446.73706,487.49582L371.404,487.38675"/> </g> <g style="fill:rgb(255,255,255); fill-opacity:1.0; stroke-linejoin: miter"> <path d="M375.8429,491.7208L375.7489,556.60095L423.69818,556.72815L442.2553,556.6593L442.27954,491.81693L375.97015,491.72092"/> </g> </g> </svg>